<svg xmlns="http://www.w3.org/2000/svg" version="1.1" xmlns:xlink="http://www.w3.org/1999/xlink" xmlns:svgjs="http://svgjs.dev/svgjs" width="256" height="256"><svg xmlns="http://www.w3.org/2000/svg" xmlns:xlink="http://www.w3.org/1999/xlink" width="256" zoomAndPan="magnify" viewBox="0 0 192 191.999996" height="256" preserveAspectRatio="xMidYMid meet" version="1.0"><defs><clipPath id="SvgjsClipPath1011"><path d="M 9 107 L 99 107 L 99 183.679688 L 9 183.679688 Z M 9 107 " clip-rule="nonzero"></path></clipPath><clipPath id="SvgjsClipPath1010"><path d="M 107 93 L 183.679688 93 L 183.679688 183 L 107 183 Z M 107 93 " clip-rule="nonzero"></path></clipPath><clipPath id="SvgjsClipPath1009"><path d="M 8.179688 9 L 85 9 L 85 99 L 8.179688 99 Z M 8.179688 9 " clip-rule="nonzero"></path></clipPath><clipPath id="SvgjsClipPath1008"><path d="M 93 8.179688 L 183 8.179688 L 183 85 L 93 85 Z M 93 8.179688 " clip-rule="nonzero"></path></clipPath></defs><g clip-path="url(#7a43482c7d)"><path fill="#000000" d="M 96.074219 183.699219 L 96.03125 183.699219 C 75.121094 183.699219 54.875 176.230469 39.023438 162.664062 C 23.34375 149.242188 12.84375 130.714844 9.464844 110.46875 C 9.214844 109.039062 10.191406 107.691406 11.621094 107.441406 C 13.054688 107.191406 14.402344 108.167969 14.648438 109.597656 C 17.824219 128.621094 27.699219 146.066406 42.449219 158.660156 C 57.363281 171.417969 76.386719 178.429688 96.050781 178.429688 C 97.503906 178.429688 98.707031 179.613281 98.707031 181.0625 C 98.707031 182.515625 97.546875 183.699219 96.09375 183.699219 Z M 96.074219 183.699219 " fill-opacity="1" fill-rule="nonzero"></path></g><g clip-path="url(#5bb24db7d3)"><path fill="#000000" d="M 110.074219 182.558594 C 108.808594 182.558594 107.691406 181.644531 107.484375 180.359375 C 107.253906 178.925781 108.207031 177.578125 109.640625 177.328125 C 128.683594 174.175781 146.128906 164.300781 158.742188 149.554688 C 171.5 134.636719 178.53125 115.59375 178.53125 95.949219 L 178.53125 95.761719 C 178.53125 94.308594 179.714844 93.128906 181.167969 93.128906 C 182.621094 93.128906 183.800781 94.308594 183.800781 95.761719 L 183.800781 95.929688 C 183.800781 116.859375 176.335938 137.125 162.746094 152.976562 C 149.324219 168.660156 130.777344 179.15625 110.511719 182.535156 C 110.367188 182.558594 110.222656 182.578125 110.074219 182.578125 Z M 110.074219 182.558594 " fill-opacity="1" fill-rule="nonzero"></path></g><g clip-path="url(#72c3264d54)"><path fill="#000000" d="M 10.894531 98.644531 C 9.441406 98.644531 8.261719 97.464844 8.261719 96.011719 L 8.261719 95.929688 C 8.261719 75.039062 15.730469 54.792969 29.273438 38.941406 C 42.675781 23.257812 61.203125 12.761719 81.449219 9.359375 C 82.878906 9.132812 84.226562 10.085938 84.476562 11.519531 C 84.726562 12.949219 83.75 14.296875 82.320312 14.546875 C 63.296875 17.71875 45.890625 27.59375 33.277344 42.34375 C 20.542969 57.257812 13.53125 76.28125 13.53125 95.929688 L 13.53125 96.011719 C 13.53125 97.464844 12.347656 98.644531 10.894531 98.644531 Z M 10.894531 98.644531 " fill-opacity="1" fill-rule="nonzero"></path></g><g clip-path="url(#0f4cc32778)"><path fill="#000000" d="M 179.984375 84.371094 C 178.71875 84.371094 177.621094 83.460938 177.390625 82.175781 C 174.199219 63.171875 164.324219 45.765625 149.574219 33.15625 C 134.65625 20.417969 115.636719 13.40625 96.011719 13.40625 L 95.867188 13.40625 C 94.414062 13.40625 93.230469 12.222656 93.230469 10.769531 C 93.230469 9.320312 94.414062 8.136719 95.867188 8.136719 L 96.011719 8.136719 C 116.902344 8.136719 137.125 15.605469 152.996094 29.152344 C 168.679688 42.550781 179.175781 61.054688 182.578125 81.28125 C 182.828125 82.714844 181.851562 84.0625 180.421875 84.3125 C 180.277344 84.332031 180.128906 84.351562 179.984375 84.351562 Z M 179.984375 84.371094 " fill-opacity="1" fill-rule="nonzero"></path></g><path fill="#010101" d="M 118.1875 93.023438 C 116.445312 93.023438 115.011719 94.476562 115.011719 96.257812 C 115.011719 101.613281 112.875 106.445312 109.453125 109.972656 C 106.007812 113.476562 101.257812 115.65625 96.03125 115.65625 C 90.804688 115.65625 86.054688 113.476562 82.609375 109.972656 C 79.167969 106.464844 77.050781 101.613281 77.050781 96.257812 C 77.050781 94.476562 75.640625 93.023438 73.875 93.023438 C 72.113281 93.023438 70.703125 94.476562 70.703125 96.257812 C 70.703125 109.433594 80.390625 120.28125 92.859375 121.898438 L 92.859375 138.289062 L 81.179688 138.289062 C 78.8125 138.289062 76.90625 140.238281 76.90625 142.644531 C 76.90625 145.050781 78.8125 147 81.179688 147 L 96.03125 147 C 96.03125 147 110.882812 147 110.882812 147 C 113.25 147 115.15625 145.050781 115.15625 142.644531 C 115.15625 140.238281 113.25 138.289062 110.882812 138.289062 L 99.207031 138.289062 L 99.207031 121.898438 C 110.882812 120.40625 120.117188 110.78125 121.234375 98.75 L 120.28125 98.667969 L 121.234375 98.75 C 121.320312 97.917969 121.359375 97.089844 121.359375 96.257812 C 121.359375 94.476562 119.949219 93.023438 118.1875 93.023438 Z M 118.1875 93.023438 " fill-opacity="1" fill-rule="nonzero"></path><path fill="#010101" d="M 81.449219 66.078125 L 110.59375 66.078125 L 110.59375 70.910156 L 81.449219 70.910156 Z M 81.449219 66.078125 " fill-opacity="1" fill-rule="nonzero"></path><path fill="#010101" d="M 96.03125 44.832031 C 87.984375 44.832031 81.449219 51.492188 81.449219 59.726562 L 81.449219 61.242188 L 110.59375 61.242188 L 110.59375 59.726562 C 110.59375 51.511719 104.058594 44.832031 96.011719 44.832031 Z M 96.03125 44.832031 " fill-opacity="1" fill-rule="nonzero"></path><path fill="#010101" d="M 81.449219 94.351562 C 81.449219 102.566406 87.984375 109.246094 96.03125 109.246094 C 104.082031 109.246094 110.613281 102.585938 110.613281 94.351562 L 110.613281 85.390625 L 81.46875 85.390625 L 81.46875 94.351562 Z M 81.449219 94.351562 " fill-opacity="1" fill-rule="nonzero"></path><path fill="#010101" d="M 81.449219 75.722656 L 110.59375 75.722656 L 110.59375 80.554688 L 81.449219 80.554688 Z M 81.449219 75.722656 " fill-opacity="1" fill-rule="nonzero"></path></svg><style>@media (prefers-color-scheme: light) { :root { filter: none; } }
@media (prefers-color-scheme: dark) { :root { filter: none; } }
</style></svg>